<?xml version="1.0"?>
<svg xmlns="http://www.w3.org/2000/svg" height="512px" viewBox="-76 0 512 512.00008" width="512px"><path d="m343.585938 179.953125c3.785156-2.765625 7.082031-6.21875 9.714843-10.269531 5.671875-8.738282 7.605469-19.164063 5.4375-29.355469-3.535156-16.636719-17.253906-28.535156-33.246093-30.578125 4.921874-10.175781 5.292968-22.261719.339843-33.121094-1.722656-3.773437-6.175781-5.4375-9.949219-3.714844-3.773437 1.71875-5.4375 6.175782-3.714843 9.949219 4.617187 10.121094 1.707031 21.980469-7.074219 28.839844-10.421875 8.144531-25.527344 6.289063-33.671875-4.132813-3.921875-5.019531-5.6875-11.5-4.878906-17.816406 1.257812-9.789062 8.917969-18.152344 18.371093-20.332031 4.042969-.929687 6.566407-4.964844 5.632813-9.003906-.929687-4.042969-4.96875-6.5625-9.003906-5.632813-.570313.132813-1.132813.285156-1.695313.441406.144532-4.675781-.550781-9.382812-2.117187-13.933593-3.390625-9.851563-10.417969-17.792969-19.78125-22.359375-14.171875-6.914063-30.523438-4.417969-41.960938 5.019531-2.035156-4.871094-5.058593-9.320313-8.980469-13.085937-7.515624-7.214844-17.390624-11.054688-27.808593-10.8593755-10.417969.2109375-20.128907 4.4687495-27.347657 11.9843755-3.441406 3.582031-6.109374 7.710937-7.945312 12.171874-3.628906-3.058593-7.824219-5.460937-12.449219-7.050781-9.851562-3.394531-20.433593-2.746093-29.796875 1.820313-14.210937 6.929687-22.320312 21.410156-21.878906 36.277344-4.894531-1.367188-10.058594-1.769532-15.253906-1.128907-10.34375 1.269531-19.570313 6.492188-25.984375 14.703125-9.433594 12.070313-10.609375 28.003906-4.386719 40.957032-16.007812 2.027343-29.753906 13.933593-33.289062 30.585937-2.167969 10.191406-.234376 20.617187 5.441406 29.355469 2.628906 4.050781 5.921875 7.503906 9.710937 10.269531-12.414062 9.089844-18.792969 25.105469-14.847656 40.933594 3.984375 15.984375 17.363281 27.195312 32.78125 29.238281-6.199219 13.316406-4.605469 29.613281 5.445313 41.585938 6.699218 7.984374 16.101562 12.878906 26.480468 13.789062 1.160156.101562 2.316406.152344 3.46875.152344 3.574219 0 7.089844-.496094 10.472656-1.441406-.894531 15.726562 7.847657 31.117187 23.070313 37.894531 5.140625 2.289062 10.515625 3.371093 15.808594 3.371093 9.023437 0 17.789062-3.164062 24.753906-8.847656 2.023437 5.394532 5.242187 10.316406 9.519531 14.425782 1.335938 1.277343 2.746094 2.445312 4.214844 3.507812-1.125.921875-2.210938 1.910156-3.234375 2.972656-6.675781 6.957032-10.246094 16.09375-10.050781 25.734375.230468 11.320313 5.683594 21.328125 14 27.78125-1.0625 1.972657-2.132813 3.941407-3.210938 5.871094-1.140625 2.046875-2.902344 5.488281-4.824218 10.277344-1.542969 3.847656.328124 8.21875 4.175781 9.761719 3.855469 1.546874 8.222656-.324219 9.765625-4.175782 1.625-4.046875 3.070312-6.882812 4-8.546875 1.222656-2.195312 2.429687-4.414062 3.628906-6.640625 2.742188.671875 5.601562 1.03125 8.542969 1.03125.246093 0 .496093 0 .742187-.007812 2.558594-.050782 5.066406-.371094 7.5-.9375 1.175782 2.1875 2.363282 4.378906 3.574219 6.554687 3.160156 5.667969 13.472656 27 13.472656 63.582031 0 5.050782-4.109375 9.160157-9.160156 9.160157h-32.613281c-5.050782 0-9.160156-4.109375-9.160156-9.160157 0-3.898437.117187-7.792968.351562-11.566406.257812-4.140625-2.886719-7.707031-7.027344-7.960937-4.148437-.265625-7.703125 2.886719-7.960937 7.027343-.253907 4.085938-.382813 8.289063-.382813 12.5 0 13.332032 10.847656 24.179688 24.179688 24.179688h32.613281c13.332031 0 24.179687-10.847656 24.179687-24.179688 0-39.109374-10.75-62.609374-15.375-70.898437-1.039062-1.863281-2.058593-3.757813-3.078124-5.652344 1.476562-1.125 2.878906-2.371093 4.191406-3.734375 6.675781-6.957031 10.246094-16.09375 10.050781-25.730468-.226563-11.019532-5.40625-20.769532-13.347656-27.234376 6.136719-4.425781 10.941406-10.574218 13.6875-17.726562 6.921875 5.546875 15.578125 8.632812 24.488281 8.632812 15.917969 0 30.695312-10.269531 36.359375-25.027343 2.019531-5.257813 2.855469-10.773438 2.535156-16.234375 3.378907.945312 6.886719 1.4375 10.457031 1.4375 1.148438 0 2.308594-.050782 3.46875-.152344 10.378907-.910156 19.78125-5.804688 26.480469-13.789062 6.695313-7.980469 9.886719-18.089844 8.976563-28.472657-.402344-4.617187-1.601563-9.039062-3.503906-13.121093 15.40625-2.046876 28.773437-13.257813 32.753906-29.230469 3.945312-15.828125-2.4375-31.84375-14.847656-40.933594zm-43.121094-44.582031c3.488281-5.371094 8.863281-9.066406 15.132812-10.398438 12.941406-2.746094 25.699219 5.542969 28.453125 18.480469 1.332031 6.265625.140625 12.675781-3.347656 18.050781-3.492187 5.375-8.863281 9.066406-15.132813 10.398438-6.265624 1.328125-12.679687.144531-18.050781-3.347656-5.375-3.488282-9.066406-8.863282-10.398437-15.128907-1.335938-6.269531-.144532-12.679687 3.34375-18.054687zm-81.09375-91.851563c2.707031-5.550781 7.496094-10.082031 13.664062-12.207031 5.871094-2.019531 12.601563-1.671875 18.328125 1.121094 5.757813 2.808594 10.078125 7.691406 12.164063 13.75 4.199218 12.195312-2.628906 26.277344-14.871094 30.492187-12.910156 4.445313-26.113281-2.15625-30.492188-14.871093-2.128906-6.191407-1.496093-12.746094 1.207032-18.285157zm-56.6875-21.128906c4.441406-4.621094 10.410156-7.238281 16.816406-7.367187.164062-.003907.328125-.003907.492188-.003907 20.496093-.003906 31.398437 25.917969 17.300781 40.601563-9.007813 9.378906-24.546875 9.6875-33.917969.6875-9.554688-9.171875-9.914062-24.3125-.691406-33.917969zm-54.445313 10.042969c12.140625-5.921875 26.292969-.816406 32.078125 11.046875 2.808594 5.757812 3.207032 12.265625 1.121094 18.324219-4.152344 12.050781-18.253906 19.085937-30.496094 14.871093-19.90625-6.855469-21.378906-35.132812-2.703125-44.242187zm-57.863281 45.597656c3.945312-5.050781 9.621094-8.261719 15.980469-9.042969.992187-.121093 1.984375-.179687 2.96875-.179687 19.796875 0 31.007812 23.207031 18.855469 38.761718-3.945313 5.046876-9.617188 8.257813-15.980469 9.039063-6.359375.785156-12.640625-.960937-17.691407-4.90625-5.046874-3.945313-8.261718-9.617187-9.039062-15.980469-.78125-6.359375.960938-12.640625 4.90625-17.691406zm-34.820312 65.417969c1.324218-6.238281 5.160156-11.761719 10.527343-15.203125 10.960938-7.019532 26.085938-3.605469 33.054688 7.125 9.125 14.054687.582031 33.632812-15.851563 36.628906-9.511718 1.734375-19.117187-2.382812-24.386718-10.5-3.488282-5.371094-4.675782-11.78125-3.34375-18.050781zm.1875 73.804687c-1.550782-6.21875-.585938-12.667968 2.714843-18.160156 10.847657-18.050781 38.757813-13.824219 43.835938 6.550781 1.550781 6.21875.589843 12.667969-2.710938 18.160157-3.207031 5.335937-8.710937 9.414062-14.761719 10.921874-12.832031 3.199219-25.878906-4.640624-29.078124-17.472656zm68.957031 67.761719c-4.910157 4.117187-11.125 6.082031-17.511719 5.523437-6.382812-.5625-12.164062-3.570312-16.285156-8.480468-8.5-10.132813-7.175782-25.292969 2.957031-33.796875 9.988281-8.378907 25.40625-7.042969 33.796875 2.957031 8.5 10.132812 7.175781 25.292969-2.957031 33.796875zm55.972656 31.210937c-5.382813 12.085938-19.589844 17.539063-31.671875 12.160157-12.085938-5.382813-17.539062-19.589844-12.160156-31.671875 3.972656-8.925782 12.757812-14.230469 21.949218-14.230469 3.253907 0 6.5625.664063 9.722657 2.070313 12.085937 5.378906 17.539062 19.589843 12.160156 31.671874zm39.746094 87.382813c-11.613281.21875-21.265625-9.027344-21.5-20.644531-.117188-5.628906 1.96875-10.964844 5.867187-15.023438 3.898438-4.0625 9.144532-6.359375 14.773438-6.472656.144531-.003906.289062-.007812.433594-.007812 11.425781 0 20.832031 9.175781 21.066406 20.648437.113281 5.628906-1.96875 10.964844-5.867188 15.023437-3.898437 4.0625-9.148437 6.359376-14.773437 6.476563zm-17.042969-63.390625c-4.625-4.4375-7.242188-10.410156-7.371094-16.816406s2.242188-12.476563 6.679688-17.097656c14.515625-15.121094 40.863281-4.628907 41.289062 16.125.425782 20.902343-25.503906 32.285156-40.597656 17.789062zm41.054688-47.726562c-.003907.007812-.007813.015624-.007813.023437-7.128906-5.746094-15.960937-8.78125-25.226563-8.597656-8.863281.179687-17.207031 3.296875-23.945312 8.84375-3.546875-9.4375-10.710938-17.511719-20.628906-21.925781-8.648438-3.851563-17.964844-4.289063-26.433594-1.894532.570312-9.605468-2.367188-19.441406-9.027344-27.375-6.53125-7.78125-15.476562-12.367187-24.835937-13.585937 3.679687-7.835938 4.796875-16.933594 2.542969-25.96875-2.300782-9.222657-7.726563-16.855469-14.871094-22.054688 7.796875-5.671875 13.15625-13.90625 15.175781-23.40625 1.820313-8.566406.734375-17.292969-3.023437-25.050781 10.296874-1.292969 19.476562-6.503906 25.867187-14.683594 5.691406-7.28125 8.554687-16.144531 8.246094-25.269531 3.417969.957031 6.96875 1.453125 10.554687 1.453125 5.730469 0 11.550782-1.269531 17.039063-3.945312 8.683593-4.234376 15.347656-11.371094 18.976562-20.242188 7.046875 5.960938 15.851563 9.203125 25.132813 9.203125.273437 0 .542968 0 .816406-.007813 8.921875-.179687 17.324219-3.335937 24.085938-8.960937 3.652343 8.757813 10.273437 15.8125 18.878906 20.011719 5.492187 2.675781 11.308594 3.941406 17.039062 3.941406 3.585938 0 7.136719-.496094 10.554688-1.453125-.308594 9.125 2.554687 17.988281 8.246094 25.269531 6.597656 8.445313 16.003906 13.417969 25.878906 14.660156-3.769532 7.761719-4.859375 16.496094-3.035156 25.074219 2.019531 9.5 7.378906 17.738281 15.175781 23.40625-7.140625 5.203125-12.570313 12.832031-14.871094 22.054688-2.253906 9.035156-1.136719 18.132812 2.542969 25.972656-9.359375 1.21875-18.304688 5.800781-24.835938 13.582031-6.460937 7.699219-9.644531 17.378906-9.046875 27.371094-8.464843-2.386719-17.773437-1.949219-26.414062 1.898438-9.519531 4.238281-16.816407 11.925781-20.550781 21.65625zm58.8125 22.574218c-2.296876 5.984375-6.785157 10.710938-12.636719 13.316406-12.085938 5.382813-26.292969-.074218-31.671875-12.15625-2.609375-5.855468-2.777344-12.371093-.480469-18.355468 2.292969-5.980469 6.78125-10.710938 12.636719-13.316406 3.160156-1.410157 6.464844-2.074219 9.722656-2.074219 9.1875 0 17.976562 5.308593 21.949219 14.230469 2.605469 5.855468 2.777343 12.375.480469 18.355468zm45.457031-33.007812c-4.117188 4.910156-9.902344 7.917968-16.285157 8.480468-13.035156 1.144532-24.851562-8.820312-25.988281-21.808593-.558593-6.382813 1.402344-12.601563 5.523438-17.511719 4.738281-5.644531 11.542969-8.558594 18.394531-8.558594 12.417969 0 22.789062 9.445313 23.878906 21.890625.558594 6.382813-1.402344 12.601563-5.523437 17.507813zm35.160156-64.804688c-3.199219 12.832032-16.25 20.671875-29.078125 17.472656-6.265625-1.5625-12.609375-6.574218-15.582031-12.4375-2.597657-5.117187-3.277344-11.074218-1.890625-16.644531 2.714844-10.894531 12.523437-18.1875 23.277344-18.1875 1.914062 0 3.859374.234375 5.800781.714844 12.835937 3.199219 20.671875 16.246094 17.472656 29.082031zm0 0" fill="#01d3f6"/></svg>
